<svg width="380" height="288" viewBox="0 0 380 288" fill="none" xmlns="http://www.w3.org/2000/svg">
<path d="M373.86 135.73C376.915 138.342 379.018 142.457 379.331 146.464C379.646 150.471 378.233 154.852 375.622 157.908L269.661 281.913C267.05 284.968 262.96 287.045 258.953 287.359C254.946 287.673 250.539 286.26 247.484 283.649L211.024 252.477L228.177 258.185C236.065 260.808 244.671 260.203 252.114 256.502L252.194 256.476C259.651 252.736 265.319 246.188 267.952 238.272L317.933 87.9344L317.934 87.9334L373.86 135.73ZM236.807 39.4783L294.52 58.6561C298.334 59.923 301.822 62.9532 303.623 66.5477C305.422 70.1413 305.759 74.7551 304.49 78.5701L253.01 233.301C251.741 237.115 248.738 240.603 245.144 242.404C241.551 244.203 236.936 244.54 233.123 243.271L174.724 223.83L196.661 224.857C204.994 225.247 213.14 222.313 219.312 216.701C225.476 211.074 229.156 203.231 229.544 194.893L236.806 39.4764L236.807 39.4783ZM103.616 0.0173817C105.696 0.103241 107.765 0.566956 109.588 1.41289L109.641 1.43828C113.265 3.1354 116.366 6.52286 117.742 10.2771L173.906 163.38C175.284 167.135 175.1 171.71 173.432 175.348L173.406 175.401C171.717 179.048 168.341 182.172 164.568 183.555L77.257 215.597C73.4858 216.982 68.8821 216.787 65.2355 215.096C61.589 213.408 58.4653 210.005 57.0822 206.232L0.917173 53.1307C-0.46671 49.3578 -0.272209 44.7541 1.41717 41.1092C3.10661 37.4618 6.48242 34.3368 10.256 32.952L97.5656 0.91289C99.0117 0.390595 100.529 0.0882545 102.065 0.0173817C102.581 -0.00784875 103.096 -0.00364387 103.616 0.0173817ZM206.447 14.8016C210.463 14.9894 214.631 16.9591 217.338 19.9305C220.044 22.902 221.602 27.2547 221.415 31.2684L213.839 194.156C213.652 198.171 211.681 202.341 208.711 205.049C205.74 207.754 201.412 209.339 197.397 209.151L146.889 206.811L169.988 198.341C177.818 195.465 184.184 189.598 187.691 182.03C191.199 174.455 191.559 165.798 188.692 157.959L134.948 11.4861L134.947 11.4852L206.447 14.8016ZM91.674 60.3816C86.076 60.2143 80.3839 61.1887 74.5988 63.3045C68.8139 65.4203 64.0994 68.2516 60.4562 71.7986C56.8131 75.3458 54.4106 79.3764 53.2502 83.8895C52.165 88.3751 52.5574 93.1731 54.426 98.282C55.8823 102.264 57.7808 105.36 60.1223 107.57C62.4638 109.78 65.0545 111.388 67.8928 112.394C70.806 113.373 73.8109 114.02 76.9074 114.336C80.0518 114.549 83.1043 114.625 86.0637 114.565C89.0705 114.402 91.8422 114.411 94.3781 114.591C96.9618 114.668 99.1641 115.098 100.984 115.881C102.775 116.588 104.014 117.881 104.701 119.76C105.443 121.788 105.095 123.747 103.656 125.636C102.265 127.422 99.8791 128.934 96.4982 130.171C92.5165 131.627 88.6729 132.18 84.968 131.832C81.2354 131.408 77.4425 130.24 73.591 128.327L65.5549 145.832C71.2057 148.706 76.8445 150.264 82.4699 150.507C88.1705 150.722 94.3643 149.605 101.051 147.16C111.119 143.478 118.136 138.442 122.102 132.051C126.143 125.632 126.708 118.44 123.795 110.476C122.311 106.419 120.37 103.211 117.974 100.85C115.577 98.49 112.909 96.7823 109.968 95.7283C107.102 94.647 104.135 93.9863 101.066 93.7459C97.9964 93.5055 94.9438 93.4288 91.9094 93.5164C88.9501 93.5766 86.1921 93.6064 83.6359 93.6043C81.1274 93.4996 78.9903 93.1302 77.2258 92.4979C75.4616 91.8654 74.2494 90.6474 73.59 88.8445C72.9307 87.0416 73.2115 85.363 74.4318 83.8094C75.6524 82.2557 77.6531 80.9706 80.4328 79.9539C83.3628 78.8823 86.2874 78.4936 89.2062 78.7889C92.1252 79.0842 95.2265 79.9945 98.5099 81.5193L106.7 64.0857C102.281 61.7838 97.2719 60.549 91.674 60.3816Z" fill="black"/>
<path d="M103.616 0.0173817C105.696 0.103241 107.765 0.566956 109.588 1.41289L109.641 1.43828C113.265 3.1354 116.366 6.52286 117.742 10.2771L173.906 163.38C175.284 167.135 175.1 171.71 173.432 175.348L173.406 175.401C171.717 179.048 168.341 182.172 164.568 183.555L77.257 215.597C73.4858 216.982 68.8821 216.787 65.2355 215.096C61.589 213.408 58.4653 210.005 57.0822 206.232L0.917173 53.1307C-0.46671 49.3578 -0.272209 44.7541 1.41717 41.1092C3.10661 37.4618 6.48242 34.3368 10.256 32.952L97.5656 0.91289C99.0117 0.390595 100.529 0.0882545 102.065 0.0173817C102.581 -0.00784875 103.096 -0.00364387 103.616 0.0173817ZM91.674 60.3816C86.076 60.2143 80.3839 61.1887 74.5988 63.3045C68.8139 65.4203 64.0994 68.2516 60.4562 71.7986C56.8131 75.3458 54.4106 79.3764 53.2502 83.8895C52.165 88.3751 52.5574 93.1731 54.426 98.282C55.8823 102.264 57.7808 105.36 60.1223 107.57C62.4638 109.78 65.0545 111.388 67.8928 112.394C70.806 113.373 73.8109 114.02 76.9074 114.336C80.0518 114.549 83.1043 114.625 86.0637 114.565C89.0705 114.402 91.8422 114.411 94.3781 114.591C96.9618 114.668 99.1641 115.098 100.984 115.881C102.775 116.588 104.014 117.881 104.701 119.76C105.443 121.788 105.095 123.747 103.656 125.636C102.265 127.422 99.8791 128.934 96.4982 130.171C92.5165 131.627 88.6729 132.18 84.968 131.832C81.2354 131.408 77.4425 130.24 73.591 128.327L65.5549 145.832C71.2057 148.706 76.8445 150.264 82.4699 150.507C88.1705 150.722 94.3643 149.605 101.051 147.16C111.119 143.478 118.136 138.442 122.102 132.051C126.143 125.632 126.708 118.44 123.795 110.476C122.311 106.419 120.37 103.211 117.974 100.85C115.577 98.49 112.909 96.7823 109.968 95.7283C107.102 94.647 104.135 93.9863 101.066 93.7459C97.9964 93.5055 94.9438 93.4288 91.9094 93.5164C88.9501 93.5766 86.1921 93.6064 83.6359 93.6043C81.1274 93.4996 78.9903 93.1302 77.2258 92.4979C75.4616 91.8654 74.2494 90.6474 73.59 88.8445C72.9307 87.0416 73.2115 85.363 74.4318 83.8094C75.6524 82.2557 77.6531 80.9706 80.4328 79.9539C83.3628 78.8823 86.2874 78.4936 89.2062 78.7889C92.1252 79.0842 95.2265 79.9945 98.5099 81.5193L106.7 64.0857C102.281 61.7838 97.2719 60.549 91.674 60.3816Z" fill="#286DDB"/>
</svg>