<svg width="979" height="174" viewBox="0 0 979 174" fill="none" xmlns="http://www.w3.org/2000/svg">
<path d="M802.928 171V29.2H827.928L838.728 58.2V171H802.928ZM900.728 171L817.928 65.8L827.928 29.2L910.928 134.4L900.728 171ZM900.728 171L891.528 141.2V29.2H927.328V171H900.728Z" fill="black"/>
<path d="M539.336 113.6V88H566.336C572.203 88 576.669 86.6 579.736 83.8C582.936 80.8666 584.536 76.9333 584.536 72C584.536 67.2 582.936 63.3333 579.736 60.4C576.669 57.3333 572.203 55.8 566.336 55.8H539.336V29.2H571.336C580.936 29.2 589.336 31 596.536 34.6C603.869 38.2 609.603 43.1333 613.736 49.4C617.869 55.6666 619.936 63 619.936 71.4C619.936 79.8 617.803 87.2 613.536 93.6C609.403 99.8666 603.603 104.8 596.136 108.4C588.669 111.867 579.936 113.6 569.936 113.6H539.336ZM510.936 171V29.2H546.736V171H510.936ZM587.736 171L546.536 110.2L578.736 102.4L629.136 171H587.736Z" fill="black"/>
<path d="M344.661 171L399.661 29.2H434.261L488.661 171H451.261L410.261 51.8H423.261L381.261 171H344.661Z" fill="black"/>
<path d="M283.498 154L230.098 12.2H268.298L308.298 126.8H291.898L332.498 12.2H369.898L315.898 154H283.498Z" fill="black"/>
<path d="M112.434 171L167.434 29.2H202.034L256.434 171H219.034L178.034 51.8H191.034L149.034 171H112.434Z" fill="black"/>
<path d="M55 173.2C43.1333 173.2 32.8 171.4 24 167.8C15.3333 164.2 7.40001 158.533 0.200012 150.8L22.8 128C27.7333 133.2 33 137.2 38.6 140C44.2 142.667 50.5333 144 57.6 144C63.6 144 68.2 143 71.4 141C74.7334 138.867 76.4 136 76.4 132.4C76.4 129.067 75.2 126.333 72.8 124.2C70.4 121.933 67.2 120 63.2 118.4C59.3334 116.667 55 115.067 50.2 113.6C45.5333 112 40.8 110.133 36 108C31.3333 105.733 27 103 23 99.8001C19.1333 96.6001 16 92.6 13.6 87.8C11.2 83 10 77.0667 10 70.0001C10 60.9334 12.1333 53.2 16.4 46.8C20.8 40.4 26.8667 35.4667 34.6 32C42.3333 28.5334 51.3333 26.8 61.6 26.8C71.8667 26.8 81.3334 28.5334 90 32C98.6667 35.4667 105.8 40.2667 111.4 46.4L88.6 69C84.3334 64.7334 80 61.5334 75.6 59.4C71.2 57.2667 66.4 56.2001 61.2 56.2001C56.2667 56.2001 52.4 57.0667 49.6 58.8C46.8 60.5334 45.4 63 45.4 66.2C45.4 69.4 46.6 72.0001 49 74.0001C51.4 76.0001 54.5333 77.8 58.4 79.4C62.4 80.8667 66.7334 82.4 71.4 84C76.2 85.6 80.9334 87.4667 85.6 89.6001C90.2667 91.7334 94.5334 94.4667 98.4 97.8C102.4 101.133 105.6 105.333 108 110.4C110.4 115.467 111.6 121.6 111.6 128.8C111.6 142.933 106.6 153.867 96.6 161.6C86.7334 169.333 72.8667 173.2 55 173.2Z" fill="black"/>
<path fill-rule="evenodd" clip-rule="evenodd" d="M688.492 29.094C685.24 29.9228 682.084 30.9581 679.023 32.2C669.823 35.8 661.823 40.9333 655.023 47.6C648.223 54.2666 642.89 62.0667 639.023 71C635.29 79.8 633.423 89.4 633.423 99.8C633.423 110.2 635.357 119.933 639.223 129C643.09 137.933 648.423 145.733 655.223 152.4C662.157 159.067 670.223 164.267 679.423 168C688.166 171.548 697.692 173.41 708 173.586V141.587C702.487 141.468 697.495 140.539 693.023 138.8C688.223 136.8 684.09 134 680.623 130.4C677.157 126.667 674.49 122.267 672.623 117.2C670.89 112 670.023 106.2 670.023 99.8C670.023 91.5333 671.623 84.2667 674.823 78C678.023 71.7333 682.557 66.9333 688.423 63.6C694.29 60.1333 701.223 58.4 709.223 58.4C710.738 58.4 712.213 58.4637 713.651 58.591L688.492 29.094ZM714 58.6233C718.125 59.02 721.933 59.9456 725.423 61.4C730.223 63.4 734.357 66.2667 737.823 70C741.29 73.6 743.89 77.9333 745.623 83C747.49 88.0667 748.423 93.6667 748.423 99.8C748.423 108.2 746.823 115.533 743.623 121.8C740.423 128.067 735.89 132.933 730.023 136.4C724.157 139.867 717.223 141.6 709.223 141.6C708.984 141.6 708.746 141.599 708.509 141.596L733.116 170.373C735.263 169.741 737.366 169.017 739.423 168.2C748.623 164.467 756.623 159.267 763.423 152.6C770.223 145.8 775.49 137.933 779.223 129C783.09 120.067 785.023 110.4 785.023 100C785.023 89.6 783.09 79.9333 779.223 71C775.49 62.0667 770.223 54.2666 763.423 47.6C756.623 40.9333 748.623 35.8 739.423 32.2C731.579 29.0167 723.105 27.1906 714 26.7216V58.6233Z" fill="black"/>
<path d="M961.2 34.56C957.84 34.56 954.88 33.7867 952.32 32.24C949.76 30.6934 947.733 28.6134 946.24 26C944.8 23.3867 944.08 20.48 944.08 17.28C944.08 14.0267 944.8 11.12 946.24 8.56003C947.68 6.00003 949.653 3.97337 952.16 2.48003C954.72 0.933366 957.68 0.160034 961.04 0.160034C964.4 0.160034 967.36 0.933366 969.92 2.48003C972.533 3.97337 974.56 6.0267 976 8.64003C977.44 11.2 978.16 14.08 978.16 17.28C978.16 20.5334 977.44 23.4667 976 26.08C974.56 28.6934 972.56 30.7734 970 32.32C967.44 33.8134 964.507 34.56 961.2 34.56ZM955.44 26.16V8.00003H957.92V26.16H955.44ZM966.16 26.16L959.28 17.68H962.24L969.2 26.16H966.16ZM961.04 32.48C964.027 32.48 966.613 31.8134 968.8 30.48C971.04 29.0934 972.8 27.28 974.08 25.04C975.36 22.7467 976 20.16 976 17.28C976 14.4534 975.36 11.92 974.08 9.68003C972.8 7.3867 971.04 5.57336 968.8 4.24003C966.613 2.9067 964.027 2.24003 961.04 2.24003C958.16 2.24003 955.6 2.9067 953.36 4.24003C951.173 5.57336 949.44 7.3867 948.16 9.68003C946.933 11.92 946.32 14.4534 946.32 17.28C946.32 20.16 946.933 22.7467 948.16 25.04C949.44 27.28 951.173 29.0934 953.36 30.48C955.6 31.8134 958.16 32.48 961.04 32.48ZM956.64 18V15.76H961.92C962.987 15.76 963.787 15.52 964.32 15.04C964.853 14.5067 965.12 13.84 965.12 13.04C965.12 12.2934 964.853 11.6534 964.32 11.12C963.787 10.5334 962.987 10.24 961.92 10.24H956.64V8.00003H962C963.707 8.00003 965.067 8.48003 966.08 9.44003C967.093 10.3467 967.6 11.52 967.6 12.96C967.6 14.5067 967.093 15.7334 966.08 16.64C965.067 17.5467 963.707 18 962 18H956.64Z" fill="black"/>
</svg>