<svg width="1419" height="288" viewBox="0 0 1419 288" fill="none" xmlns="http://www.w3.org/2000/svg">
<path d="M373.86 135.73C376.915 138.341 379.018 142.456 379.331 146.463C379.646 150.47 378.233 154.852 375.622 157.908L269.661 281.913C267.05 284.968 262.96 287.045 258.953 287.359C254.946 287.673 250.539 286.26 247.484 283.649L211.024 252.477L228.177 258.185C236.065 260.808 244.671 260.203 252.114 256.502L252.194 256.476C259.651 252.736 265.319 246.188 267.952 238.272L317.933 87.9341L317.934 87.9332L373.86 135.73ZM236.807 39.4781L294.52 58.6558C298.334 59.9227 301.822 62.9529 303.623 66.5474C305.422 70.141 305.759 74.7549 304.49 78.5699L253.01 233.3C251.741 237.114 248.738 240.602 245.144 242.404C241.551 244.203 236.936 244.539 233.123 243.271L174.724 223.83L196.661 224.857C204.994 225.246 213.14 222.312 219.312 216.701C225.476 211.074 229.156 203.23 229.544 194.893L236.806 39.4761L236.807 39.4781ZM103.616 0.0171376C105.696 0.102997 107.765 0.566711 109.588 1.41265L109.641 1.43804C113.265 3.13515 116.366 6.52261 117.742 10.2769L173.906 163.379C175.284 167.135 175.1 171.71 173.432 175.348L173.406 175.401C171.717 179.047 168.341 182.171 164.568 183.555L77.257 215.597C73.4858 216.982 68.8821 216.787 65.2355 215.096C61.589 213.408 58.4653 210.005 57.0822 206.232L0.917173 53.1304C-0.46671 49.3576 -0.272209 44.7539 1.41717 41.1089C3.10661 37.4616 6.48242 34.3365 10.256 32.9517L97.5656 0.912645C99.0117 0.390351 100.529 0.0880103 102.065 0.0171376C102.581 -0.0080929 103.096 -0.00388801 103.616 0.0171376ZM206.447 14.8013C210.463 14.9891 214.631 16.9588 217.338 19.9302C220.044 22.9018 221.602 27.2544 221.415 31.2681L213.839 194.156C213.652 198.171 211.681 202.34 208.711 205.048C205.74 207.754 201.412 209.339 197.397 209.151L146.889 206.811L169.988 198.34C177.818 195.465 184.184 189.598 187.691 182.03C191.199 174.455 191.559 165.798 188.692 157.959L134.948 11.4859L134.947 11.4849L206.447 14.8013ZM91.674 60.3814C86.076 60.2141 80.3839 61.1884 74.5988 63.3042C68.8139 65.42 64.0994 68.2514 60.4562 71.7984C56.8131 75.3455 54.4106 79.3762 53.2502 83.8892C52.165 88.3748 52.5574 93.1728 54.426 98.2818C55.8823 102.264 57.7808 105.36 60.1223 107.57C62.4638 109.78 65.0545 111.388 67.8928 112.394C70.806 113.373 73.8109 114.02 76.9074 114.335C80.0518 114.548 83.1043 114.625 86.0637 114.565C89.0705 114.402 91.8422 114.411 94.3781 114.59C96.9618 114.668 99.1641 115.098 100.984 115.88C102.775 116.588 104.014 117.881 104.701 119.759C105.443 121.788 105.095 123.746 103.656 125.635C102.265 127.422 99.8791 128.934 96.4982 130.17C92.5165 131.627 88.6729 132.18 84.968 131.832C81.2354 131.408 77.4425 130.24 73.591 128.327L65.5549 145.832C71.2057 148.705 76.8445 150.264 82.4699 150.506C88.1705 150.721 94.3643 149.605 101.051 147.16C111.119 143.478 118.136 138.441 122.102 132.05C126.143 125.632 126.708 118.44 123.795 110.476C122.311 106.419 120.37 103.211 117.974 100.85C115.577 98.4898 112.909 96.782 109.968 95.7281C107.102 94.6467 104.135 93.986 101.066 93.7457C97.9964 93.5053 94.9438 93.4285 91.9094 93.5162C88.9501 93.5763 86.1921 93.6062 83.6359 93.6041C81.1274 93.4993 78.9903 93.13 77.2258 92.4976C75.4616 91.8652 74.2494 90.6472 73.59 88.8443C72.9307 87.0413 73.2115 85.3627 74.4318 83.8091C75.6524 82.2554 77.6531 80.9703 80.4328 79.9537C83.3628 78.8821 86.2874 78.4934 89.2062 78.7886C92.1252 79.0839 95.2265 79.9943 98.5099 81.5191L106.7 64.0855C102.281 61.7836 97.2719 60.5488 91.674 60.3814Z" fill="black"/>
<path d="M103.616 0.0173817C105.696 0.103241 107.765 0.566956 109.588 1.41289L109.641 1.43828C113.265 3.1354 116.366 6.52286 117.742 10.2771L173.906 163.38C175.284 167.135 175.1 171.71 173.432 175.348L173.406 175.401C171.717 179.048 168.341 182.172 164.568 183.555L77.257 215.597C73.4858 216.982 68.8821 216.787 65.2355 215.096C61.589 213.408 58.4653 210.005 57.0822 206.232L0.917173 53.1307C-0.46671 49.3578 -0.272209 44.7541 1.41717 41.1092C3.10661 37.4618 6.48242 34.3368 10.256 32.952L97.5656 0.91289C99.0117 0.390595 100.529 0.0882545 102.065 0.0173817C102.581 -0.00784875 103.096 -0.00364387 103.616 0.0173817ZM91.674 60.3816C86.076 60.2143 80.3839 61.1887 74.5988 63.3045C68.8139 65.4203 64.0994 68.2516 60.4562 71.7986C56.8131 75.3458 54.4106 79.3764 53.2502 83.8895C52.165 88.3751 52.5574 93.1731 54.426 98.282C55.8823 102.264 57.7808 105.36 60.1223 107.57C62.4638 109.78 65.0545 111.388 67.8928 112.394C70.806 113.373 73.8109 114.02 76.9074 114.336C80.0518 114.549 83.1043 114.625 86.0637 114.565C89.0705 114.402 91.8422 114.411 94.3781 114.591C96.9618 114.668 99.1641 115.098 100.984 115.881C102.775 116.588 104.014 117.881 104.701 119.76C105.443 121.788 105.095 123.747 103.656 125.636C102.265 127.422 99.8791 128.934 96.4982 130.171C92.5165 131.627 88.6729 132.18 84.968 131.832C81.2354 131.408 77.4425 130.24 73.591 128.327L65.5549 145.832C71.2057 148.706 76.8445 150.264 82.4699 150.507C88.1705 150.722 94.3643 149.605 101.051 147.16C111.119 143.478 118.136 138.442 122.102 132.051C126.143 125.632 126.708 118.44 123.795 110.476C122.311 106.419 120.37 103.211 117.974 100.85C115.577 98.49 112.909 96.7823 109.968 95.7283C107.102 94.647 104.135 93.9863 101.066 93.7459C97.9964 93.5055 94.9438 93.4288 91.9094 93.5164C88.9501 93.5766 86.1921 93.6064 83.6359 93.6043C81.1274 93.4996 78.9903 93.1302 77.2258 92.4979C75.4616 91.8654 74.2494 90.6474 73.59 88.8445C72.9307 87.0416 73.2115 85.363 74.4318 83.8094C75.6524 82.2557 77.6531 80.9706 80.4328 79.9539C83.3628 78.8823 86.2874 78.4936 89.2062 78.7889C92.1252 79.0842 95.2265 79.9945 98.5099 81.5193L106.7 64.0857C102.281 61.7838 97.2719 60.549 91.674 60.3816Z" fill="#286DDB"/>
<path d="M1368.98 246V111.525H1417.11V246H1368.98ZM1392.91 95.85C1385.76 95.85 1379.8 93.4666 1375.03 88.7C1370.27 83.75 1367.88 77.6083 1367.88 70.275C1367.88 63.125 1370.27 57.075 1375.03 52.125C1379.8 47.175 1385.76 44.7 1392.91 44.7C1400.43 44.7 1406.48 47.175 1411.06 52.125C1415.83 57.075 1418.21 63.125 1418.21 70.275C1418.21 77.6083 1415.83 83.75 1411.06 88.7C1406.48 93.4666 1400.43 95.85 1392.91 95.85Z" fill="#286DDB"/>
<path d="M1275.47 249.025C1260.99 249.025 1248.07 246 1236.7 239.95C1225.52 233.717 1216.62 225.283 1210.02 214.65C1203.42 203.833 1200.12 191.733 1200.12 178.35C1200.12 164.967 1203.33 153.05 1209.75 142.6C1216.35 131.967 1225.33 123.625 1236.7 117.575C1248.07 111.342 1260.9 108.225 1275.2 108.225C1289.5 108.225 1302.24 111.342 1313.42 117.575C1324.79 123.625 1333.78 131.967 1340.38 142.6C1346.98 153.05 1350.27 164.967 1350.27 178.35C1350.27 191.733 1346.98 203.833 1340.38 214.65C1333.96 225.283 1325.07 233.717 1313.7 239.95C1302.52 246 1289.77 249.025 1275.47 249.025ZM1275.2 206.4C1280.52 206.4 1285.1 205.3 1288.95 203.1C1292.98 200.717 1296.1 197.417 1298.3 193.2C1300.5 188.983 1301.6 184.125 1301.6 178.625C1301.6 173.125 1300.41 168.358 1298.02 164.325C1295.82 160.108 1292.8 156.9 1288.95 154.7C1285.1 152.317 1280.52 151.125 1275.2 151.125C1270.07 151.125 1265.48 152.317 1261.45 154.7C1257.42 157.083 1254.3 160.383 1252.1 164.6C1249.9 168.633 1248.8 173.4 1248.8 178.9C1248.8 184.217 1249.9 188.983 1252.1 193.2C1254.3 197.417 1257.42 200.717 1261.45 203.1C1265.48 205.3 1270.07 206.4 1275.2 206.4Z" fill="#286DDB"/>
<path d="M1080.75 176.15V139.575H1119.25C1124.02 139.575 1128.32 138.658 1132.17 136.825C1136.21 134.808 1139.42 131.875 1141.8 128.025C1144.18 124.175 1145.37 119.408 1145.37 113.725C1145.37 108.042 1144.18 103.275 1141.8 99.425C1139.42 95.3917 1136.21 92.4584 1132.17 90.625C1128.32 88.6084 1124.02 87.6 1119.25 87.6H1080.75V51.025H1127.77C1140.24 51.025 1151.52 53.5917 1161.6 58.725C1171.68 63.675 1179.66 70.825 1185.52 80.175C1191.39 89.3417 1194.32 100.525 1194.32 113.725C1194.32 126.558 1191.39 137.742 1185.52 147.275C1179.66 156.625 1171.68 163.775 1161.6 168.725C1151.52 173.675 1140.24 176.15 1127.77 176.15H1080.75ZM1041.7 246V51.025H1090.92V246H1041.7Z" fill="#286DDB"/>
<path d="M976.973 246V114H1007.22V246H976.973ZM992.098 89.8C986.964 89.8 982.656 88.0583 979.173 84.575C975.873 81.0917 974.223 76.7833 974.223 71.65C974.223 66.5167 975.873 62.2083 979.173 58.725C982.656 55.2417 986.964 53.5 992.098 53.5C997.414 53.5 1001.72 55.2417 1005.02 58.725C1008.32 62.2083 1009.97 66.5167 1009.97 71.65C1009.97 76.7833 1008.32 81.0917 1005.02 84.575C1001.72 88.0583 997.414 89.8 992.098 89.8Z" fill="black"/>
<path d="M864.709 246V114H894.959V246H864.709ZM894.959 172.575L884.509 167.35C884.509 150.667 888.176 137.192 895.509 126.925C903.026 116.475 914.301 111.25 929.334 111.25C935.934 111.25 941.892 112.442 947.209 114.825C952.526 117.208 957.476 121.058 962.059 126.375L942.259 146.725C939.876 144.158 937.217 142.325 934.284 141.225C931.351 140.125 927.959 139.575 924.109 139.575C915.676 139.575 908.709 142.233 903.209 147.55C897.709 152.867 894.959 161.208 894.959 172.575Z" fill="black"/>
<path d="M770.254 248.75C757.42 248.75 745.779 245.725 735.329 239.675C724.879 233.442 716.537 225.1 710.304 214.65C704.254 204.2 701.229 192.558 701.229 179.725C701.229 166.892 704.254 155.342 710.304 145.075C716.537 134.808 724.879 126.65 735.329 120.6C745.779 114.367 757.42 111.25 770.254 111.25C783.27 111.25 795.004 114.275 805.454 120.325C815.904 126.375 824.154 134.625 830.204 145.075C836.437 155.342 839.554 166.892 839.554 179.725C839.554 192.558 836.437 204.2 830.204 214.65C824.154 225.1 815.904 233.442 805.454 239.675C795.004 245.725 783.27 248.75 770.254 248.75ZM770.254 219.6C777.77 219.6 784.37 217.95 790.054 214.65C795.92 211.167 800.412 206.4 803.529 200.35C806.829 194.3 808.479 187.425 808.479 179.725C808.479 172.025 806.829 165.242 803.529 159.375C800.229 153.508 795.737 148.925 790.054 145.625C784.37 142.142 777.77 140.4 770.254 140.4C762.92 140.4 756.32 142.142 750.454 145.625C744.77 148.925 740.279 153.508 736.979 159.375C733.862 165.242 732.304 172.025 732.304 179.725C732.304 187.425 733.862 194.3 736.979 200.35C740.279 206.4 744.77 211.167 750.454 214.65C756.32 217.95 762.92 219.6 770.254 219.6Z" fill="black"/>
<path d="M629.658 246V59H659.908V246H629.658ZM598.033 141.5V114H691.533V141.5H598.033Z" fill="black"/>
<path d="M514.525 248.75C499.309 248.75 486.384 246 475.75 240.5C465.117 235 455.584 226.933 447.15 216.3L468.6 194.85C473.917 202.55 480.242 208.6 487.575 213C494.909 217.217 504.259 219.325 515.625 219.325C526.259 219.325 534.692 217.125 540.925 212.725C547.342 208.325 550.55 202.275 550.55 194.575C550.55 188.158 548.9 182.933 545.6 178.9C542.3 174.867 537.9 171.567 532.4 169C527.084 166.25 521.125 163.867 514.525 161.85C508.109 159.65 501.6 157.267 495 154.7C488.584 151.95 482.625 148.558 477.125 144.525C471.809 140.492 467.5 135.267 464.2 128.85C460.9 122.433 459.25 114.275 459.25 104.375C459.25 93.0083 462 83.3833 467.5 75.5C473.184 67.4333 480.792 61.2917 490.325 57.075C499.859 52.8583 510.492 50.75 522.225 50.75C534.875 50.75 546.15 53.225 556.05 58.175C566.134 63.125 574.292 69.45 580.525 77.15L559.075 98.6C553.575 92.3667 547.8 87.7833 541.75 84.85C535.884 81.7333 529.1 80.175 521.4 80.175C511.867 80.175 504.35 82.1 498.85 85.95C493.534 89.8 490.875 95.2083 490.875 102.175C490.875 108.042 492.525 112.808 495.825 116.475C499.125 119.958 503.434 122.983 508.75 125.55C514.25 127.933 520.209 130.225 526.625 132.425C533.225 134.625 539.734 137.1 546.15 139.85C552.75 142.6 558.709 146.175 564.025 150.575C569.525 154.792 573.925 160.292 577.225 167.075C580.525 173.858 582.175 182.383 582.175 192.65C582.175 209.883 576.034 223.542 563.75 233.625C551.65 243.708 535.242 248.75 514.525 248.75Z" fill="black"/>
</svg>